# xmcd
#
# Track frame offsets:
#	150
#	18950
#	49187
#	66423
#	81529
#	98904
#	112504
#	127411
#	147321
#	163222
#
# Disc length: 2406 seconds
#
# Revision: 1
# Processed by: cddbd v1.5.2PL0 Copyright (c) Steve Scherf et al.
# Submitted via: audiograbber 1.83.01
#
DISCID=8f09640a
DTITLE=Lipstick Rodeo - Lipstick Rodeo Live
DYEAR=2013
DGENRE=Country Rock
TTITLE0=Mille apres mille
TTITLE1=Someday you gotta dance
TTITLE2=Lamour est eternel (Never can tell)
TTITLE3=Play something country
TTITLE4=Tornado
TTITLE5=Guitare Cadillac
TTITLE6=Une autre chambre dhotel
TTITLE7=Neon moon
TTITLE8=Better dig two
TTITLE9=Red neck woman
EXTD=
EXTT0=
EXTT1=
EXTT2=
EXTT3=
EXTT4=
EXTT5=
EXTT6=
EXTT7=
EXTT8=
EXTT9=
PLAYORDER=
